<svg xmlns="http://www.w3.org/2000/svg" viewBox="0 0 240 240">
  <circle cx="120" cy="120" r="84" data-color-primary="true" fill="#f87171" />
  <g fill="#fde68a">
    <polygon points="120,36 144,84 96,84" />
    <polygon points="120,204 144,156 96,156" />
    <polygon points="36,120 84,144 84,96" />
    <polygon points="204,120 156,144 156,96" />
  </g>
  <g fill="#60a5fa" opacity="0.8">
    <polygon points="120,60 138,96 102,96" />
    <polygon points="120,180 138,144 102,144" />
    <polygon points="60,120 96,138 96,102" />
    <polygon points="180,120 144,138 144,102" />
  </g>
  <g fill="#34d399" opacity="0.75">
    <polygon points="120,120 140,140 120,160 100,140" />
    <polygon points="120,120 140,100 120,80 100,100" />
  </g>
  <circle cx="120" cy="120" r="18" fill="#fff" />
</svg>
