<svg xmlns="http://www.w3.org/2000/svg" viewBox="0 0 240 240">
  <circle cx="120" cy="120" r="68" data-color-primary="true" fill="#ffb545" />
  <circle cx="120" cy="120" r="44" fill="#ff8a5b" opacity="0.85" />
  <circle cx="120" cy="120" r="24" fill="#fff6d6" />
  <g fill="#ffd27f" opacity="0.75">
    <rect x="118" y="12" width="12" height="52" rx="6" transform="rotate(0 120 120)" />
    <rect x="118" y="12" width="12" height="52" rx="6" transform="rotate(30 120 120)" />
    <rect x="118" y="12" width="12" height="52" rx="6" transform="rotate(60 120 120)" />
    <rect x="118" y="12" width="12" height="52" rx="6" transform="rotate(90 120 120)" />
    <rect x="118" y="12" width="12" height="52" rx="6" transform="rotate(120 120 120)" />
    <rect x="118" y="12" width="12" height="52" rx="6" transform="rotate(150 120 120)" />
    <rect x="118" y="12" width="12" height="52" rx="6" transform="rotate(180 120 120)" />
    <rect x="118" y="12" width="12" height="52" rx="6" transform="rotate(210 120 120)" />
    <rect x="118" y="12" width="12" height="52" rx="6" transform="rotate(240 120 120)" />
    <rect x="118" y="12" width="12" height="52" rx="6" transform="rotate(270 120 120)" />
    <rect x="118" y="12" width="12" height="52" rx="6" transform="rotate(300 120 120)" />
    <rect x="118" y="12" width="12" height="52" rx="6" transform="rotate(330 120 120)" />
  </g>
</svg>
