<?xml version="1.0" encoding="UTF-8" standalone="no"?>
<!-- Created with Inkscape (http://www.inkscape.org/) -->

<svg
   width="22"
   height="22"
   viewBox="0 0 5.8208332 5.8208333"
   version="1.1"
   id="svg1"
   inkscape:version="1.4.2 (f4327f4, 2025-05-13)"
   sodipodi:docname="icon_frame_show.svg"
   xmlns:inkscape="http://www.inkscape.org/namespaces/inkscape"
   xmlns:sodipodi="http://sodipodi.sourceforge.net/DTD/sodipodi-0.dtd"
   xmlns="http://www.w3.org/2000/svg"
   xmlns:svg="http://www.w3.org/2000/svg">
  <sodipodi:namedview
     id="namedview1"
     pagecolor="#505050"
     bordercolor="#eeeeee"
     borderopacity="1"
     inkscape:showpageshadow="0"
     inkscape:pageopacity="0"
     inkscape:pagecheckerboard="0"
     inkscape:deskcolor="#505050"
     inkscape:document-units="px"
     inkscape:zoom="11.388664"
     inkscape:cx="32.093316"
     inkscape:cy="17.956452"
     inkscape:window-width="1920"
     inkscape:window-height="1001"
     inkscape:window-x="-8"
     inkscape:window-y="375"
     inkscape:window-maximized="1"
     inkscape:current-layer="svg1" />
  <defs
     id="defs1" />
  <path
     id="path9"
     style="display:inline;fill:#000000;stroke-width:0.00481061"
     inkscape:label="path"
     d="M 0.52916666 0 C 0.38364596 0 0.25917466 0.051917959 0.15554606 0.15554606 C 0.051917359 0.25917446 0 0.38364596 0 0.52916666 L 0 1.3229166 L 0.52916666 1.3229166 L 0.52916666 0.52916666 L 1.3229166 0.52916666 L 1.3229166 0 L 0.52916666 0 z M 1.8520833 0 L 1.8520833 0.52916666 L 3.9687499 0.52916666 L 3.9687499 0 L 1.8520833 0 z M 4.4979166 0 L 4.4979166 0.52916666 L 5.2916666 0.52916666 L 5.2916666 1.3229166 L 5.8208332 1.3229166 L 5.8208332 0.52916666 C 5.8208332 0.38364596 5.7689132 0.25917446 5.6652872 0.15554606 C 5.5616582 0.051917569 5.4371876 3.9166201e-17 5.2916666 0 L 4.4979166 0 z M 2.9104166 1.4670939 C 2.4421846 1.4670939 2.0157568 1.5979417 1.6309082 1.859318 C 1.24606 2.1206942 0.96693204 2.471048 0.79374999 2.9104166 C 0.96693204 3.3497854 1.24606 3.700139 1.6309082 3.9615152 C 2.0157568 4.2228914 2.4421846 4.3537394 2.9104166 4.3537394 C 3.3786495 4.3537394 3.8050769 4.2228914 4.1899251 3.9615152 C 4.5747734 3.700139 4.8539013 3.3497854 5.0270833 2.9104166 C 4.8539013 2.471048 4.5747734 2.1206942 4.1899251 1.859318 C 3.8050769 1.5979417 3.3786495 1.4670939 2.9104166 1.4670939 z M 0 1.8520833 L 0 3.9687499 L 0.52916666 3.9687499 L 0.52916666 1.8520833 L 0 1.8520833 z M 2.9104166 1.8520833 C 3.2728158 1.8520833 3.6057371 1.94755 3.9088053 2.1383707 C 4.2118734 2.3291915 4.4435 2.5865026 4.6038533 2.9104166 C 4.4435 3.2343308 4.2118734 3.4916418 3.9088053 3.6824625 C 3.6057371 3.8732832 3.2728158 3.9687499 2.9104166 3.9687499 C 2.5480179 3.9687499 2.2150961 3.8732832 1.912028 3.6824625 C 1.6089594 3.4916418 1.3773332 3.2343308 1.21698 2.9104166 C 1.3773332 2.5865026 1.6089594 2.3291915 1.912028 2.1383707 C 2.2150961 1.94755 2.5480179 1.8520833 2.9104166 1.8520833 z M 5.2916666 1.8520833 L 5.2916666 3.9687499 L 5.8208332 3.9687499 L 5.8208332 1.8520833 L 5.2916666 1.8520833 z M 2.9104166 2.0443196 C 2.6698867 2.0443196 2.4653888 2.1286462 2.2970174 2.2970174 C 2.1286463 2.4653886 2.0443196 2.6698864 2.0443196 2.9104166 C 2.0443196 3.150947 2.1286463 3.3554447 2.2970174 3.5238159 C 2.4653888 3.6921871 2.6698867 3.7765136 2.9104166 3.7765136 C 3.150947 3.7765136 3.3554444 3.6921871 3.5238159 3.5238159 C 3.6921869 3.3554447 3.7765136 3.150947 3.7765136 2.9104166 C 3.7765136 2.6698864 3.6921869 2.4653886 3.5238159 2.2970174 C 3.3554444 2.1286462 3.150947 2.0443196 2.9104166 2.0443196 z M 2.9104166 2.3910685 C 3.0547349 2.3910685 3.1773302 2.4414577 3.2783528 2.5424804 C 3.3793756 2.6435031 3.4297648 2.7660984 3.4297648 2.9104166 C 3.4297648 3.0547348 3.3793756 3.1773301 3.2783528 3.2783528 C 3.1773302 3.3793756 3.0547349 3.4297648 2.9104166 3.4297648 C 2.7660988 3.4297648 2.6435031 3.3793756 2.5424804 3.2783528 C 2.4414577 3.1773301 2.3910685 3.0547348 2.3910685 2.9104166 C 2.3910685 2.7660984 2.4414577 2.6435031 2.5424804 2.5424804 C 2.6435031 2.4414577 2.7660988 2.3910685 2.9104166 2.3910685 z M 0 4.4979166 L 0 5.2916666 C 0 5.4371873 0.051917559 5.5616588 0.15554606 5.6652872 C 0.25917466 5.7689156 0.38364596 5.8208333 0.52916666 5.8208332 L 1.3229166 5.8208332 L 1.3229166 5.2916666 L 0.52916666 5.2916666 L 0.52916666 4.4979166 L 0 4.4979166 z M 5.2916666 4.4979166 L 5.2916666 5.2916666 L 4.4979166 5.2916666 L 4.4979166 5.8208332 L 5.2916666 5.8208332 C 5.4371876 5.8208332 5.5616582 5.7689152 5.6652872 5.6652872 C 5.7689152 5.5616588 5.8208333 5.4371873 5.8208332 5.2916666 L 5.8208332 4.4979166 L 5.2916666 4.4979166 z M 1.8520833 5.2916666 L 1.8520833 5.8208332 L 3.9687499 5.8208332 L 3.9687499 5.2916666 L 1.8520833 5.2916666 z " />
</svg>
