<?xml version="1.0" encoding="UTF-8" standalone="no"?>
<!-- Created with Inkscape (http://www.inkscape.org/) -->

<svg
   width="22"
   height="22"
   viewBox="0 0 5.8208332 5.8208333"
   version="1.1"
   id="svg1"
   inkscape:version="1.4.2 (f4327f4, 2025-05-13)"
   sodipodi:docname="icon_frame_hide.svg"
   xmlns:inkscape="http://www.inkscape.org/namespaces/inkscape"
   xmlns:sodipodi="http://sodipodi.sourceforge.net/DTD/sodipodi-0.dtd"
   xmlns="http://www.w3.org/2000/svg"
   xmlns:svg="http://www.w3.org/2000/svg">
  <sodipodi:namedview
     id="namedview1"
     pagecolor="#505050"
     bordercolor="#eeeeee"
     borderopacity="1"
     inkscape:showpageshadow="0"
     inkscape:pageopacity="0"
     inkscape:pagecheckerboard="0"
     inkscape:deskcolor="#505050"
     inkscape:document-units="px"
     inkscape:zoom="11.388664"
     inkscape:cx="32.00551"
     inkscape:cy="17.956452"
     inkscape:window-width="1920"
     inkscape:window-height="1001"
     inkscape:window-x="-8"
     inkscape:window-y="375"
     inkscape:window-maximized="1"
     inkscape:current-layer="svg1" />
  <defs
     id="defs1" />
  <path
     id="path9"
     style="display:inline;fill:#000000;stroke-width:0.00481061"
     inkscape:label="path"
     d="M 0.52916666 0 C 0.38364596 0 0.25917466 0.051917959 0.15554606 0.15554606 C 0.051917359 0.25917446 0 0.38364596 0 0.52916666 L 0 1.3229166 L 0.52916666 1.3229166 L 0.52916666 0.52916666 L 1.3229166 0.52916666 L 1.3229166 0 L 0.52916666 0 z M 1.8520833 0 L 1.8520833 0.52916666 L 3.9687499 0.52916666 L 3.9687499 0 L 1.8520833 0 z M 4.4979166 0 L 4.4979166 0.52916666 L 5.2916666 0.52916666 L 5.2916666 1.3229166 L 5.8208332 1.3229166 L 5.8208332 0.52916666 C 5.8208332 0.38364596 5.7689132 0.25917446 5.6652872 0.15554606 C 5.5616582 0.051917569 5.4371876 3.9166201e-17 5.2916666 0 L 4.4979166 0 z M 1.4138672 1.0397298 L 1.0397298 1.4138672 L 1.5456421 1.9197794 C 1.2045046 2.1738689 0.95389346 2.5041273 0.79374999 2.9104166 C 0.96693204 3.3497854 1.24606 3.700139 1.6309082 3.9615152 C 2.0157568 4.2228914 2.4421846 4.3537394 2.9104166 4.3537394 C 3.2262583 4.3537394 3.5229002 4.2943828 3.8008015 4.1754557 L 3.8013183 4.1754557 L 4.4069661 4.7811034 L 4.7811034 4.4069661 L 4.2751912 3.9010538 C 4.6163287 3.6469643 4.8669399 3.316706 5.0270833 2.9104166 C 4.8539013 2.471048 4.5747734 2.1206942 4.1899251 1.859318 C 3.8050769 1.5979417 3.3786495 1.4670939 2.9104166 1.4670939 C 2.5945756 1.4670939 2.297933 1.5264504 2.0200317 1.6453776 L 2.0195149 1.6453776 L 1.4138672 1.0397298 z M 0 1.8520833 L 0 3.9687499 L 0.52916666 3.9687499 L 0.52916666 1.8520833 L 0 1.8520833 z M 2.9104166 1.8520833 C 3.2728158 1.8520833 3.6057371 1.94755 3.9088053 2.1383707 C 4.2118734 2.3291915 4.4435 2.5865026 4.6038533 2.9104166 C 4.4595415 3.2019271 4.2570731 3.4393208 3.997172 3.6230346 L 3.6829793 3.3088419 C 3.7451414 3.1893328 3.7765136 3.0565667 3.7765136 2.9104166 C 3.7765136 2.6698864 3.6921869 2.4653886 3.5238159 2.2970174 C 3.3554444 2.1286462 3.150947 2.0443196 2.9104166 2.0443196 C 2.7642668 2.0443196 2.6315005 2.0756918 2.5119913 2.137854 L 2.3192382 1.9451009 C 2.5066127 1.8830415 2.7037465 1.8520833 2.9104166 1.8520833 z M 5.2916666 1.8520833 L 5.2916666 3.9687499 L 5.8208332 3.9687499 L 5.8208332 1.8520833 L 5.2916666 1.8520833 z M 1.8236613 2.1977986 L 2.137854 2.5119913 C 2.0756918 2.6315005 2.0443196 2.7642665 2.0443196 2.9104166 C 2.0443196 3.150947 2.1286463 3.3554447 2.2970174 3.5238159 C 2.4653888 3.6921871 2.6698867 3.7765136 2.9104166 3.7765136 C 3.0565668 3.7765136 3.1893326 3.7451415 3.3088419 3.6829793 L 3.501595 3.8757324 C 3.3142204 3.9377918 3.1170871 3.9687499 2.9104166 3.9687499 C 2.5480179 3.9687499 2.2150961 3.8732832 1.912028 3.6824625 C 1.6089594 3.4916418 1.3773332 3.2343308 1.21698 2.9104166 C 1.3612918 2.6189062 1.5637597 2.3815125 1.8236613 2.1977986 z M 2.9104166 2.3910685 C 3.0547349 2.3910685 3.1773302 2.4414577 3.2783528 2.5424804 C 3.3793756 2.6435031 3.4297648 2.7660984 3.4297648 2.9104166 C 3.4297648 2.9559939 3.4248543 2.9993821 3.4147786 3.0406412 L 2.780192 2.4060547 C 2.8214511 2.395979 2.8648394 2.3910685 2.9104166 2.3910685 z M 2.4060547 2.780192 L 3.0406412 3.4147786 C 2.9993819 3.4248544 2.9559941 3.4297648 2.9104166 3.4297648 C 2.7660988 3.4297648 2.6435031 3.3793756 2.5424804 3.2783528 C 2.4414577 3.1773301 2.3910685 3.0547348 2.3910685 2.9104166 C 2.3910685 2.8648393 2.395979 2.8214512 2.4060547 2.780192 z M 0 4.4979166 L 0 5.2916666 C 0 5.4371873 0.051917559 5.5616588 0.15554606 5.6652872 C 0.25917466 5.7689156 0.38364596 5.8208333 0.52916666 5.8208332 L 1.3229166 5.8208332 L 1.3229166 5.2916666 L 0.52916666 5.2916666 L 0.52916666 4.4979166 L 0 4.4979166 z M 5.2916666 4.4979166 L 5.2916666 5.2916666 L 4.4979166 5.2916666 L 4.4979166 5.8208332 L 5.2916666 5.8208332 C 5.4371876 5.8208332 5.5616582 5.7689152 5.6652872 5.6652872 C 5.7689152 5.5616588 5.8208333 5.4371873 5.8208332 5.2916666 L 5.8208332 4.4979166 L 5.2916666 4.4979166 z M 1.8520833 5.2916666 L 1.8520833 5.8208332 L 3.9687499 5.8208332 L 3.9687499 5.2916666 L 1.8520833 5.2916666 z " />
</svg>
